<svg xmlns="http://www.w3.org/2000/svg" fill-rule="evenodd" clip-rule="evenodd">
<defs>
	<style>:root svg:not(:target) {display: none;}</style>
</defs>


<svg xmlns="http://www.w3.org/2000/svg" id="arrow-link" width="300" height="300" viewBox="0 0 8 8" fill="none" stroke="#000" stroke-width="0.7">
	<path d="M4.5 1H7V3.5 M7 1L3.5 4.5 M3.5 1.5H1L1 7L6.5 7V4.5"/>

	<!--<path id="var-2" d="M4.5 1H7V3.5 M7 1L3.5 4.5 M3.5 1H1L1 7L7 7V4.5"/>-->
</svg>


<svg id="arrow-simple" width="300" height="300" fill="none" stroke="#166ee9" stroke-width="1">
	<path d="M3 1L6 4L3 7"/>

	<!--<path id="down" d="M1 3L4 6L7 3"/>
	<path id="left" d="M5 1L2 4L5 7"/>
	<path id="up" d="M1 5L4 2L7 5"/>-->
</svg>


<svg id="done" viewBox="0 0 20 20" fill="#166ee9" stroke-width="1">
	<path d="M2.00004 17.4445C2.00004 18.3111 2.68889 19 3.55556 19H16.4445C17.3111 19 18 18.3111 18 17.4445V8.46668C18 7.97779 17.6001 7.57787 17.1112 7.57787C16.6223 7.57787 16.2224 7.97779 16.2224 8.46668L16.2222 17.2223H3.77774V4.77778H12.4444C12.9333 4.77778 13.3332 4.37786 13.3332 3.88897C13.3332 3.40008 12.9333 3.00016 12.4444 3.00016L3.55552 3C2.68885 3 2 3.68885 2 4.55552L2.00004 17.4445Z"/>
	<path d="M18.6951 1.20904C18.3277 0.893416 17.7873 0.938547 17.4847 1.32179L9.70372 11.1063L7.41268 9.07732C7.04527 8.7617 6.5049 8.80683 6.20234 9.16743C5.89976 9.55067 5.94302 10.1143 6.28873 10.4299L8.73115 12.6168C9.01217 12.8648 9.35787 13 9.70373 13H9.8334C10.2441 12.9549 10.6115 12.752 10.8708 12.4364L18.7815 2.47153C19.1058 2.08829 19.0626 1.52465 18.6951 1.20906L18.6951 1.20904Z"/>
</svg>

</svg>
